<mxfile host="app.diagrams.net" modified="2024-06-16T16:31:27.454Z" agent="Mozilla/5.0 (Macintosh; Intel Mac OS X 10_15_7) AppleWebKit/537.36 (KHTML, like Gecko) Chrome/125.0.0.0 Safari/537.36" etag="mtg8sqqIAru3p6Tk3HtO" version="24.5.4" type="device">
  <diagram name="Page-1" id="w3UTdKGaeXKoiD2ORvp4">
    <mxGraphModel dx="1240" dy="1210" grid="0" gridSize="10" guides="1" tooltips="1" connect="1" arrows="1" fold="1" page="1" pageScale="1" pageWidth="2336" pageHeight="1654" math="0" shadow="0">
      <root>
        <mxCell id="0" />
        <mxCell id="1" parent="0" />
        <mxCell id="78961159f06e98e8-43" value="Radna aktivnost" style="swimlane;html=1;fontStyle=1;align=center;verticalAlign=top;childLayout=stackLayout;horizontal=1;startSize=26;horizontalStack=0;resizeParent=1;resizeLast=0;collapsible=1;marginBottom=0;swimlaneFillColor=#ffffff;rounded=0;shadow=0;comic=0;labelBackgroundColor=none;strokeWidth=1;fillColor=none;fontFamily=Verdana;fontSize=12" vertex="1" parent="1">
          <mxGeometry x="520" y="332" width="170" height="190" as="geometry" />
        </mxCell>
        <mxCell id="78961159f06e98e8-45" value="&lt;p style=&quot;margin: 0px; font-variant-numeric: normal; font-variant-east-asian: normal; font-variant-alternates: normal; font-kerning: auto; font-optical-sizing: auto; font-feature-settings: normal; font-variation-settings: normal; font-variant-position: normal; font-stretch: normal; font-size: 13px; line-height: normal; font-family: &amp;quot;Helvetica Neue&amp;quot;;&quot; class=&quot;p1&quot;&gt;int ID&lt;/p&gt;&lt;p style=&quot;margin: 0px; font-variant-numeric: normal; font-variant-east-asian: normal; font-variant-alternates: normal; font-kerning: auto; font-optical-sizing: auto; font-feature-settings: normal; font-variation-settings: normal; font-variant-position: normal; font-stretch: normal; font-size: 13px; line-height: normal; font-family: &amp;quot;Helvetica Neue&amp;quot;;&quot; class=&quot;p1&quot;&gt;char Opis&lt;/p&gt;&lt;p style=&quot;margin: 0px; font-variant-numeric: normal; font-variant-east-asian: normal; font-variant-alternates: normal; font-kerning: auto; font-optical-sizing: auto; font-feature-settings: normal; font-variation-settings: normal; font-variant-position: normal; font-stretch: normal; font-size: 13px; line-height: normal; font-family: &amp;quot;Helvetica Neue&amp;quot;;&quot; class=&quot;p1&quot;&gt;date VrijemePocetka&lt;/p&gt;&lt;p style=&quot;margin: 0px; font-variant-numeric: normal; font-variant-east-asian: normal; font-variant-alternates: normal; font-kerning: auto; font-optical-sizing: auto; font-feature-settings: normal; font-variation-settings: normal; font-variant-position: normal; font-stretch: normal; font-size: 13px; line-height: normal; font-family: &amp;quot;Helvetica Neue&amp;quot;;&quot; class=&quot;p1&quot;&gt;&lt;span class=&quot;Apple-converted-space&quot;&gt;date&amp;nbsp;&lt;/span&gt;VrijemeZavršetka&lt;/p&gt;" style="text;html=1;strokeColor=none;fillColor=none;align=left;verticalAlign=top;spacingLeft=4;spacingRight=4;whiteSpace=wrap;overflow=hidden;rotatable=0;points=[[0,0.5],[1,0.5]];portConstraint=eastwest;" vertex="1" parent="78961159f06e98e8-43">
          <mxGeometry y="26" width="170" height="108" as="geometry" />
        </mxCell>
        <mxCell id="KZkYA1uVPSNHDxRMgcec-3" value="" style="line;strokeWidth=4;html=1;perimeter=backbonePerimeter;points=[];outlineConnect=0;" vertex="1" parent="78961159f06e98e8-43">
          <mxGeometry y="134" width="170" height="10" as="geometry" />
        </mxCell>
        <mxCell id="KZkYA1uVPSNHDxRMgcec-2" value="&lt;p style=&quot;margin: 0px; font-variant-numeric: normal; font-variant-east-asian: normal; font-variant-alternates: normal; font-kerning: auto; font-optical-sizing: auto; font-feature-settings: normal; font-variation-settings: normal; font-variant-position: normal; font-stretch: normal; font-size: 13px; line-height: normal; font-family: &amp;quot;Helvetica Neue&amp;quot;;&quot; class=&quot;p1&quot;&gt;evidentirajRadnuAktivnost()&lt;/p&gt;" style="text;html=1;strokeColor=none;fillColor=none;align=left;verticalAlign=middle;whiteSpace=wrap;rounded=0;" vertex="1" parent="78961159f06e98e8-43">
          <mxGeometry y="144" width="170" height="46" as="geometry" />
        </mxCell>
        <mxCell id="78961159f06e98e8-17" value="Korisnik" style="swimlane;html=1;fontStyle=1;align=center;verticalAlign=top;childLayout=stackLayout;horizontal=1;startSize=26;horizontalStack=0;resizeParent=1;resizeLast=0;collapsible=1;marginBottom=0;swimlaneFillColor=#ffffff;rounded=0;shadow=0;comic=0;labelBackgroundColor=none;strokeWidth=1;fillColor=none;fontFamily=Verdana;fontSize=12" vertex="1" parent="1">
          <mxGeometry x="200" y="152" width="180" height="170" as="geometry" />
        </mxCell>
        <mxCell id="78961159f06e98e8-23" value="int id&lt;br&gt;char ime&lt;br&gt;char prezime&lt;br&gt;char email" style="text;html=1;strokeColor=none;fillColor=none;align=left;verticalAlign=top;spacingLeft=4;spacingRight=4;whiteSpace=wrap;overflow=hidden;rotatable=0;points=[[0,0.5],[1,0.5]];portConstraint=eastwest;" vertex="1" parent="78961159f06e98e8-17">
          <mxGeometry y="26" width="180" height="74" as="geometry" />
        </mxCell>
        <mxCell id="WR_-PNd6kZ2DVrEkBOXK-4" value="" style="line;strokeWidth=4;html=1;perimeter=backbonePerimeter;points=[];outlineConnect=0;" vertex="1" parent="78961159f06e98e8-17">
          <mxGeometry y="100" width="180" height="10" as="geometry" />
        </mxCell>
        <mxCell id="KZkYA1uVPSNHDxRMgcec-18" value="prijavaUSustav()&lt;div&gt;odabirFunkcije()&lt;/div&gt;" style="text;html=1;strokeColor=none;fillColor=none;align=left;verticalAlign=middle;whiteSpace=wrap;rounded=0;" vertex="1" parent="78961159f06e98e8-17">
          <mxGeometry y="110" width="180" height="60" as="geometry" />
        </mxCell>
        <mxCell id="WR_-PNd6kZ2DVrEkBOXK-16" value="" style="endArrow=none;html=1;rounded=0;entryX=1.005;entryY=0.637;entryDx=0;entryDy=0;entryPerimeter=0;exitX=-0.024;exitY=0.25;exitDx=0;exitDy=0;exitPerimeter=0;" edge="1" parent="1" source="78961159f06e98e8-45">
          <mxGeometry width="50" height="50" relative="1" as="geometry">
            <mxPoint x="510" y="210" as="sourcePoint" />
            <mxPoint x="379.9999999999999" y="210.50800000000004" as="targetPoint" />
          </mxGeometry>
        </mxCell>
        <mxCell id="WR_-PNd6kZ2DVrEkBOXK-17" value="&lt;font style=&quot;font-size: 18px;&quot;&gt;*&lt;/font&gt;" style="text;html=1;strokeColor=none;fillColor=none;align=center;verticalAlign=middle;whiteSpace=wrap;rounded=0;" vertex="1" parent="1">
          <mxGeometry x="493" y="384" width="20" height="14" as="geometry" />
        </mxCell>
        <mxCell id="WR_-PNd6kZ2DVrEkBOXK-18" value="1" style="text;html=1;strokeColor=none;fillColor=none;align=center;verticalAlign=middle;whiteSpace=wrap;rounded=0;" vertex="1" parent="1">
          <mxGeometry x="385" y="244" width="20" height="10" as="geometry" />
        </mxCell>
        <mxCell id="WR_-PNd6kZ2DVrEkBOXK-19" value="" style="endArrow=none;html=1;rounded=0;exitX=0.013;exitY=0.306;exitDx=0;exitDy=0;exitPerimeter=0;" edge="1" parent="1" source="KZkYA1uVPSNHDxRMgcec-10">
          <mxGeometry width="50" height="50" relative="1" as="geometry">
            <mxPoint x="821.1199999999999" y="380.03999999999996" as="sourcePoint" />
            <mxPoint x="690" y="380" as="targetPoint" />
          </mxGeometry>
        </mxCell>
        <mxCell id="WR_-PNd6kZ2DVrEkBOXK-21" value="1" style="text;html=1;strokeColor=none;fillColor=none;align=center;verticalAlign=middle;whiteSpace=wrap;rounded=0;" vertex="1" parent="1">
          <mxGeometry x="690" y="388" width="20" height="14" as="geometry" />
        </mxCell>
        <mxCell id="WR_-PNd6kZ2DVrEkBOXK-22" value="&lt;font style=&quot;font-size: 18px;&quot;&gt;*&lt;/font&gt;" style="text;html=1;strokeColor=none;fillColor=none;align=center;verticalAlign=middle;whiteSpace=wrap;rounded=0;" vertex="1" parent="1">
          <mxGeometry x="810" y="384" width="20" height="10" as="geometry" />
        </mxCell>
        <mxCell id="ugRKaFzwl5Q64zQcyHT1-38" value="1" style="text;html=1;strokeColor=none;fillColor=none;align=center;verticalAlign=middle;whiteSpace=wrap;rounded=0;" vertex="1" parent="1">
          <mxGeometry x="490" y="72" width="20" height="14" as="geometry" />
        </mxCell>
        <mxCell id="ugRKaFzwl5Q64zQcyHT1-39" value="&lt;font style=&quot;font-size: 18px;&quot;&gt;*&lt;/font&gt;" style="text;html=1;strokeColor=none;fillColor=none;align=center;verticalAlign=middle;whiteSpace=wrap;rounded=0;" vertex="1" parent="1">
          <mxGeometry x="333" y="133" width="20" height="10" as="geometry" />
        </mxCell>
        <mxCell id="ugRKaFzwl5Q64zQcyHT1-41" value="Izvještaj" style="swimlane;html=1;fontStyle=1;align=center;verticalAlign=top;childLayout=stackLayout;horizontal=1;startSize=26;horizontalStack=0;resizeParent=1;resizeLast=0;collapsible=1;marginBottom=0;swimlaneFillColor=#ffffff;rounded=0;shadow=0;comic=0;labelBackgroundColor=none;strokeWidth=1;fillColor=none;fontFamily=Verdana;fontSize=12" vertex="1" parent="1">
          <mxGeometry x="510" y="30" width="180" height="170" as="geometry" />
        </mxCell>
        <mxCell id="ugRKaFzwl5Q64zQcyHT1-42" value="int ID&amp;nbsp;&lt;div&gt;string Naziv&amp;nbsp;&lt;/div&gt;&lt;div&gt;date Datum&amp;nbsp;&lt;/div&gt;&lt;div&gt;string Sadrzaj&lt;/div&gt;" style="text;html=1;strokeColor=none;fillColor=none;align=left;verticalAlign=top;spacingLeft=4;spacingRight=4;whiteSpace=wrap;overflow=hidden;rotatable=0;points=[[0,0.5],[1,0.5]];portConstraint=eastwest;" vertex="1" parent="ugRKaFzwl5Q64zQcyHT1-41">
          <mxGeometry y="26" width="180" height="84" as="geometry" />
        </mxCell>
        <mxCell id="ugRKaFzwl5Q64zQcyHT1-43" value="" style="line;strokeWidth=4;html=1;perimeter=backbonePerimeter;points=[];outlineConnect=0;" vertex="1" parent="ugRKaFzwl5Q64zQcyHT1-41">
          <mxGeometry y="110" width="180" height="10" as="geometry" />
        </mxCell>
        <mxCell id="WR_-PNd6kZ2DVrEkBOXK-6" value="generirajIzvjesce()&lt;br/&gt;        pregledajIzvjesce()" style="text;html=1;strokeColor=none;fillColor=none;align=left;verticalAlign=middle;whiteSpace=wrap;rounded=0;" vertex="1" parent="ugRKaFzwl5Q64zQcyHT1-41">
          <mxGeometry y="120" width="180" height="50" as="geometry" />
        </mxCell>
        <mxCell id="KZkYA1uVPSNHDxRMgcec-9" value="Projekt" style="swimlane;html=1;fontStyle=1;align=center;verticalAlign=top;childLayout=stackLayout;horizontal=1;startSize=26;horizontalStack=0;resizeParent=1;resizeLast=0;collapsible=1;marginBottom=0;swimlaneFillColor=#ffffff;rounded=0;shadow=0;comic=0;labelBackgroundColor=none;strokeWidth=1;fillColor=none;fontFamily=Verdana;fontSize=12" vertex="1" parent="1">
          <mxGeometry x="840" y="318" width="170" height="190" as="geometry" />
        </mxCell>
        <mxCell id="KZkYA1uVPSNHDxRMgcec-10" value="int ID&amp;nbsp;&lt;div&gt;string Naziv&amp;nbsp;&lt;/div&gt;&lt;div&gt;string Opis&amp;nbsp;&lt;/div&gt;&lt;div&gt;date Pocetak&amp;nbsp;&lt;/div&gt;&lt;div&gt;date Kraj&lt;/div&gt;" style="text;html=1;strokeColor=none;fillColor=none;align=left;verticalAlign=top;spacingLeft=4;spacingRight=4;whiteSpace=wrap;overflow=hidden;rotatable=0;points=[[0,0.5],[1,0.5]];portConstraint=eastwest;" vertex="1" parent="KZkYA1uVPSNHDxRMgcec-9">
          <mxGeometry y="26" width="170" height="108" as="geometry" />
        </mxCell>
        <mxCell id="KZkYA1uVPSNHDxRMgcec-11" value="" style="line;strokeWidth=4;html=1;perimeter=backbonePerimeter;points=[];outlineConnect=0;" vertex="1" parent="KZkYA1uVPSNHDxRMgcec-9">
          <mxGeometry y="134" width="170" height="10" as="geometry" />
        </mxCell>
        <mxCell id="KZkYA1uVPSNHDxRMgcec-32" value="&lt;p style=&quot;margin: 0px; font-variant-numeric: normal; font-variant-east-asian: normal; font-variant-alternates: normal; font-kerning: auto; font-optical-sizing: auto; font-feature-settings: normal; font-variation-settings: normal; font-variant-position: normal; font-stretch: normal; font-size: 13px; line-height: normal; font-family: &amp;quot;Helvetica Neue&amp;quot;;&quot; class=&quot;p1&quot;&gt;unosPodatakaOProjektu()&lt;/p&gt;&lt;p style=&quot;margin: 0px; font-variant-numeric: normal; font-variant-east-asian: normal; font-variant-alternates: normal; font-kerning: auto; font-optical-sizing: auto; font-feature-settings: normal; font-variation-settings: normal; font-variant-position: normal; font-stretch: normal; font-size: 13px; line-height: normal; font-family: &amp;quot;Helvetica Neue&amp;quot;;&quot; class=&quot;p1&quot;&gt;pregledPodatakaOprojektu()&lt;/p&gt;" style="text;html=1;strokeColor=none;fillColor=none;align=left;verticalAlign=middle;whiteSpace=wrap;rounded=0;" vertex="1" parent="KZkYA1uVPSNHDxRMgcec-9">
          <mxGeometry y="144" width="170" height="46" as="geometry" />
        </mxCell>
        <mxCell id="KZkYA1uVPSNHDxRMgcec-16" value="" style="endArrow=none;html=1;rounded=0;fontSize=12;startSize=8;endSize=8;curved=1;entryX=0.002;entryY=0.078;entryDx=0;entryDy=0;entryPerimeter=0;" edge="1" parent="1" target="ugRKaFzwl5Q64zQcyHT1-42">
          <mxGeometry width="50" height="50" relative="1" as="geometry">
            <mxPoint x="280" y="150" as="sourcePoint" />
            <mxPoint x="330" y="60" as="targetPoint" />
          </mxGeometry>
        </mxCell>
        <mxCell id="KZkYA1uVPSNHDxRMgcec-19" value="Tim" style="swimlane;html=1;fontStyle=1;align=center;verticalAlign=top;childLayout=stackLayout;horizontal=1;startSize=26;horizontalStack=0;resizeParent=1;resizeLast=0;collapsible=1;marginBottom=0;swimlaneFillColor=#ffffff;rounded=0;shadow=0;comic=0;labelBackgroundColor=none;strokeWidth=1;fillColor=none;fontFamily=Verdana;fontSize=12" vertex="1" parent="1">
          <mxGeometry x="1094" y="341" width="162" height="122" as="geometry" />
        </mxCell>
        <mxCell id="KZkYA1uVPSNHDxRMgcec-20" value="int ID&lt;br/&gt;        string Naziv&amp;nbsp;" style="text;html=1;strokeColor=none;fillColor=none;align=left;verticalAlign=top;spacingLeft=4;spacingRight=4;whiteSpace=wrap;overflow=hidden;rotatable=0;points=[[0,0.5],[1,0.5]];portConstraint=eastwest;" vertex="1" parent="KZkYA1uVPSNHDxRMgcec-19">
          <mxGeometry y="26" width="162" height="64" as="geometry" />
        </mxCell>
        <mxCell id="KZkYA1uVPSNHDxRMgcec-21" value="" style="line;strokeWidth=4;html=1;perimeter=backbonePerimeter;points=[];outlineConnect=0;" vertex="1" parent="KZkYA1uVPSNHDxRMgcec-19">
          <mxGeometry y="90" width="162" height="10" as="geometry" />
        </mxCell>
        <mxCell id="KZkYA1uVPSNHDxRMgcec-22" value="Zaposlenik" style="swimlane;html=1;fontStyle=1;align=center;verticalAlign=top;childLayout=stackLayout;horizontal=1;startSize=26;horizontalStack=0;resizeParent=1;resizeLast=0;collapsible=1;marginBottom=0;swimlaneFillColor=#ffffff;rounded=0;shadow=0;comic=0;labelBackgroundColor=none;strokeWidth=1;fillColor=none;fontFamily=Verdana;fontSize=12" vertex="1" parent="1">
          <mxGeometry x="1332" y="339.5" width="158" height="119" as="geometry" />
        </mxCell>
        <mxCell id="KZkYA1uVPSNHDxRMgcec-23" value="int ID&lt;div&gt;char Ime&lt;/div&gt;&lt;div&gt;char Prezim&lt;/div&gt;" style="text;html=1;strokeColor=none;fillColor=none;align=left;verticalAlign=top;spacingLeft=4;spacingRight=4;whiteSpace=wrap;overflow=hidden;rotatable=0;points=[[0,0.5],[1,0.5]];portConstraint=eastwest;" vertex="1" parent="KZkYA1uVPSNHDxRMgcec-22">
          <mxGeometry y="26" width="158" height="64" as="geometry" />
        </mxCell>
        <mxCell id="KZkYA1uVPSNHDxRMgcec-24" value="" style="line;strokeWidth=4;html=1;perimeter=backbonePerimeter;points=[];outlineConnect=0;" vertex="1" parent="KZkYA1uVPSNHDxRMgcec-22">
          <mxGeometry y="90" width="158" height="10" as="geometry" />
        </mxCell>
        <mxCell id="KZkYA1uVPSNHDxRMgcec-25" value="Uloga" style="swimlane;html=1;fontStyle=1;align=center;verticalAlign=top;childLayout=stackLayout;horizontal=1;startSize=26;horizontalStack=0;resizeParent=1;resizeLast=0;collapsible=1;marginBottom=0;swimlaneFillColor=#ffffff;rounded=0;shadow=0;comic=0;labelBackgroundColor=none;strokeWidth=1;fillColor=none;fontFamily=Verdana;fontSize=12" vertex="1" parent="1">
          <mxGeometry x="1555" y="341" width="160" height="112" as="geometry" />
        </mxCell>
        <mxCell id="KZkYA1uVPSNHDxRMgcec-26" value="int ID&lt;div&gt;&amp;nbsp;string Naziv&lt;br&gt;&lt;/div&gt;" style="text;html=1;strokeColor=none;fillColor=none;align=left;verticalAlign=top;spacingLeft=4;spacingRight=4;whiteSpace=wrap;overflow=hidden;rotatable=0;points=[[0,0.5],[1,0.5]];portConstraint=eastwest;" vertex="1" parent="KZkYA1uVPSNHDxRMgcec-25">
          <mxGeometry y="26" width="160" height="54" as="geometry" />
        </mxCell>
        <mxCell id="KZkYA1uVPSNHDxRMgcec-27" value="" style="line;strokeWidth=4;html=1;perimeter=backbonePerimeter;points=[];outlineConnect=0;" vertex="1" parent="KZkYA1uVPSNHDxRMgcec-25">
          <mxGeometry y="80" width="160" height="10" as="geometry" />
        </mxCell>
        <mxCell id="KZkYA1uVPSNHDxRMgcec-28" value="" style="endArrow=none;html=1;rounded=0;exitX=0;exitY=0.5;exitDx=0;exitDy=0;entryX=1;entryY=0.5;entryDx=0;entryDy=0;" edge="1" parent="1" source="KZkYA1uVPSNHDxRMgcec-20" target="KZkYA1uVPSNHDxRMgcec-10">
          <mxGeometry width="50" height="50" relative="1" as="geometry">
            <mxPoint x="1162" y="406.5" as="sourcePoint" />
            <mxPoint x="1010" y="409.5" as="targetPoint" />
          </mxGeometry>
        </mxCell>
        <mxCell id="KZkYA1uVPSNHDxRMgcec-29" value="" style="endArrow=none;html=1;rounded=0;entryX=1;entryY=0.5;entryDx=0;entryDy=0;exitX=0;exitY=0.5;exitDx=0;exitDy=0;" edge="1" parent="1" source="KZkYA1uVPSNHDxRMgcec-23" target="KZkYA1uVPSNHDxRMgcec-20">
          <mxGeometry width="50" height="50" relative="1" as="geometry">
            <mxPoint x="1322" y="759" as="sourcePoint" />
            <mxPoint x="1210" y="620" as="targetPoint" />
          </mxGeometry>
        </mxCell>
        <mxCell id="KZkYA1uVPSNHDxRMgcec-30" value="" style="endArrow=none;html=1;rounded=0;fontSize=12;startSize=8;endSize=8;curved=1;exitX=1;exitY=0.5;exitDx=0;exitDy=0;" edge="1" parent="1" source="KZkYA1uVPSNHDxRMgcec-23" target="KZkYA1uVPSNHDxRMgcec-26">
          <mxGeometry width="50" height="50" relative="1" as="geometry">
            <mxPoint x="1100" y="240" as="sourcePoint" />
            <mxPoint x="1150" y="190" as="targetPoint" />
          </mxGeometry>
        </mxCell>
        <mxCell id="KZkYA1uVPSNHDxRMgcec-34" value="1" style="text;html=1;strokeColor=none;fillColor=none;align=center;verticalAlign=middle;whiteSpace=wrap;rounded=0;" vertex="1" parent="1">
          <mxGeometry x="1066" y="406" width="20" height="14" as="geometry" />
        </mxCell>
        <mxCell id="KZkYA1uVPSNHDxRMgcec-37" value="&lt;font style=&quot;font-size: 18px;&quot;&gt;*&lt;/font&gt;" style="text;html=1;strokeColor=none;fillColor=none;align=center;verticalAlign=middle;whiteSpace=wrap;rounded=0;" vertex="1" parent="1">
          <mxGeometry x="1014" y="406" width="20" height="10" as="geometry" />
        </mxCell>
        <mxCell id="KZkYA1uVPSNHDxRMgcec-38" value="&lt;font style=&quot;font-size: 18px;&quot;&gt;*&lt;/font&gt;" style="text;html=1;strokeColor=none;fillColor=none;align=center;verticalAlign=middle;whiteSpace=wrap;rounded=0;" vertex="1" parent="1">
          <mxGeometry x="1262" y="384" width="20" height="10" as="geometry" />
        </mxCell>
        <mxCell id="KZkYA1uVPSNHDxRMgcec-39" value="1" style="text;html=1;strokeColor=none;fillColor=none;align=center;verticalAlign=middle;whiteSpace=wrap;rounded=0;" vertex="1" parent="1">
          <mxGeometry x="1307" y="378" width="20" height="14" as="geometry" />
        </mxCell>
        <mxCell id="KZkYA1uVPSNHDxRMgcec-42" value="&lt;font style=&quot;font-size: 18px;&quot;&gt;*&lt;/font&gt;" style="text;html=1;strokeColor=none;fillColor=none;align=center;verticalAlign=middle;whiteSpace=wrap;rounded=0;" vertex="1" parent="1">
          <mxGeometry x="1532" y="386" width="20" height="10" as="geometry" />
        </mxCell>
        <mxCell id="KZkYA1uVPSNHDxRMgcec-43" value="1" style="text;html=1;strokeColor=none;fillColor=none;align=center;verticalAlign=middle;whiteSpace=wrap;rounded=0;" vertex="1" parent="1">
          <mxGeometry x="1492" y="380" width="20" height="14" as="geometry" />
        </mxCell>
      </root>
    </mxGraphModel>
  </diagram>
</mxfile>
